<?xml version="1.0" encoding="UTF-8" standalone="no"?>
<!-- Created with Inkscape (http://www.inkscape.org/) -->

<svg
   width="165.62917mm"
   height="165.62917mm"
   viewBox="0 0 165.62917 165.62917"
   version="1.1"
   id="svg1"
   xml:space="preserve"
   xmlns:inkscape="http://www.inkscape.org/namespaces/inkscape"
   xmlns:sodipodi="http://sodipodi.sourceforge.net/DTD/sodipodi-0.dtd"
   xmlns="http://www.w3.org/2000/svg"
   xmlns:svg="http://www.w3.org/2000/svg"><sodipodi:namedview
     id="namedview1"
     pagecolor="#ffffff"
     bordercolor="#000000"
     borderopacity="0.25"
     inkscape:showpageshadow="2"
     inkscape:pageopacity="0.0"
     inkscape:pagecheckerboard="0"
     inkscape:deskcolor="#d1d1d1"
     inkscape:document-units="mm" /><defs
     id="defs1" /><g
     inkscape:label="Layer 1"
     inkscape:groupmode="layer"
     id="layer1"
     transform="translate(-22.105886,-65.685417)"><path
       style="fill:#ffffff"
       d="m 112.84244,199.90496 0.0672,-32.34531 9.94087,-0.0693 9.94087,-0.0693 0.43876,-3.50259 c 1.42541,-11.379 2.25693,-17.71262 2.46587,-18.78229 l 0.14213,-0.7276 h -11.5304 -11.53039 l 0.002,-8.26823 c 8.4e-4,-4.54753 0.11503,-8.96126 0.25376,-9.80831 0.49923,-3.04824 2.03908,-5.40205 4.28526,-6.55041 1.89554,-0.96909 3.19264,-1.11689 11.20215,-1.27642 l 7.9375,-0.15809 0.0693,-10.25971 c 0.0545,-8.07804 -0.002,-10.280705 -0.26458,-10.358418 -1.31425,-0.388561 -9.20501,-0.799995 -15.2828,-0.796864 -6.46575,0.0033 -7.55596,0.06678 -9.78958,0.569777 -5.02418,1.131405 -9.46092,3.221735 -12.777968,6.020225 -3.11368,2.62691 -6.17485,7.30811 -7.70476,11.78228 -1.46765,4.29211 -1.74227,7.23639 -1.74227,18.67942 v 10.42475 H 78.907901 68.850951 l 0.0689,11.57552 0.0689,11.57552 9.92188,0.13229 9.921871,0.13229 0.0672,31.97342 0.0672,31.97341 -1.39012,-0.18805 c -1.88071,-0.25442 -7.938321,-1.78852 -10.456221,-2.64806 -5.78005,-1.97315 -13.61145,-5.5691 -17.28936,-7.93876 -1.07523,-0.69278 -2.37169,-1.52007 -2.88101,-1.83845 -1.60061,-1.00052 -1.984,-1.27529 -4.79611,-3.43727 -3.40373,-2.61681 -4.59347,-3.6833 -8.44813,-7.57293 -3.20012,-3.22915 -3.50342,-3.57706 -6.66668,-7.64726 -3.22008,-4.14331 -7.47292,-11.06351 -9.26826,-15.08125 -1.94015,-4.34179 -2.98828,-7.01588 -3.94082,-10.05417 -6.41767,-20.47027 -4.84185,-42.00744 4.49126,-61.38333 4.48748,-9.31619 11.4201,-18.387327 19.63291,-25.689114 8.72035,-7.753032 19.14412,-13.591587 30.55937,-17.11689 15.928801,-4.919195 33.935769,-4.761235 49.768919,0.43658 15.22891,4.999452 27.6658,13.465958 38.33635,26.09775 0.87367,1.034245 1.79731,2.171675 2.05255,2.527624 0.25524,0.35594 0.77125,1.06389 1.14669,1.57321 1.42548,1.93381 4.03792,6.04691 5.33978,8.40714 10.20366,18.49881 12.99371,40.30128 7.74428,60.51682 -3.9085,15.05165 -10.73937,26.96695 -21.83857,38.09375 -10.5678,10.59407 -23.60544,18.00775 -38.1,21.66505 -3.03999,0.76706 -8.36427,1.75683 -9.45052,1.75683 h -0.73803 z"
       id="path1" /></g></svg>
