<?xml version="1.0" encoding="UTF-8" standalone="no"?>
<!-- Created with Inkscape (http://www.inkscape.org/) -->

<svg
   width="107.26776mm"
   height="107.28931mm"
   viewBox="0 0 107.26776 107.28931"
   version="1.1"
   id="svg1"
   xml:space="preserve"
   xmlns:inkscape="http://www.inkscape.org/namespaces/inkscape"
   xmlns:sodipodi="http://sodipodi.sourceforge.net/DTD/sodipodi-0.dtd"
   xmlns="http://www.w3.org/2000/svg"
   xmlns:svg="http://www.w3.org/2000/svg"><sodipodi:namedview
     id="namedview1"
     pagecolor="#000000"
     bordercolor="#ffffff"
     borderopacity="0.25"
     inkscape:showpageshadow="2"
     inkscape:pageopacity="0.0"
     inkscape:pagecheckerboard="0"
     inkscape:deskcolor="#d1d1d1"
     inkscape:document-units="mm" /><defs
     id="defs1" /><g
     inkscape:label="Layer 1"
     inkscape:groupmode="layer"
     id="layer1"
     transform="translate(-50.554158,-93.767477)"><path
       style="fill:#ffffff"
       d="m 82.499038,188.8451 c 0.32577,-0.23911 0.75747,-0.75866 0.95934,-1.15454 0.34349,-0.67364 0.36705,-2.3656 0.36735,-26.38893 3.6e-4,-27.8282 0.0582,-26.4353 -1.14381,-27.54491 l -0.56849,-0.52479 -7.01048,-0.0605 c -7.77078,-0.0671 -7.90013,-0.0481 -8.70853,1.27773 -0.4006,0.657 -0.40978,1.256 -0.41055,26.77436 -8.8e-4,29.09023 -0.12054,26.79902 1.44769,27.71795 0.73238,0.42915 0.96695,0.44118 7.61542,0.39059 6.56407,-0.0499 6.88529,-0.0709 7.45206,-0.48695 z m 25.611552,0.13033 c 1.26783,-0.77305 1.21051,-0.0693 1.33437,-16.384 l 0.11395,-15.00909 0.53919,-1.8032 c 1.83035,-6.12114 5.66002,-8.90124 10.98447,-7.97402 2.77832,0.48382 4.60211,1.88718 5.88622,4.52929 1.4121,2.90546 1.41347,2.92318 1.55083,20.0829 l 0.12379,15.46473 0.49305,0.52459 c 0.90926,0.96744 1.19702,0.998 8.79279,0.9338 l 7.16562,-0.0606 0.64796,-0.62104 c 0.35638,-0.34157 0.74896,-0.95813 0.8724,-1.37013 0.31379,-1.04734 0.1223,-31.66524 -0.21598,-34.53445 -0.85471,-7.24935 -2.73797,-11.97793 -6.15212,-15.44707 -2.11123,-2.14524 -5.17891,-3.76986 -8.55479,-4.53055 -1.99194,-0.44885 -7.38466,-0.60371 -9.72727,-0.27933 -2.37465,0.32882 -5.58221,1.36567 -7.1903,2.3243 -1.41814,0.84538 -3.39996,2.61328 -4.53387,4.04448 l -0.80493,1.01596 v -2.33837 c 0,-2.58829 -0.20407,-3.24532 -1.23626,-3.9803 -0.59096,-0.4208 -0.86137,-0.43639 -7.57062,-0.43639 -7.687122,0 -7.832132,0.0222 -8.624752,1.32218 -0.40059,0.65698 -0.40979,1.25543 -0.41056,26.70506 -7.4e-4,24.81266 0.0172,26.06655 0.38279,26.74824 0.77419,1.44356 1.00105,1.48246 8.639602,1.48158 6.3883,-7.3e-4 6.86844,-0.0269 7.49442,-0.4086 z M 77.213658,128.19162 c 2.26797,-0.47828 3.98029,-1.42256 5.67415,-3.12906 1.66395,-1.67638 2.66418,-3.39655 3.13403,-5.38984 0.95454,-4.04953 -0.26603,-8.16142 -3.2614,-10.9871 -4.62314,-4.36124 -11.52489,-4.32186 -15.93769,0.0909 -2.2923,2.29231 -3.42401,4.9982 -3.42401,8.18678 0,4.45188 2.42679,8.34625 6.39229,10.25797 2.65124,1.27812 4.69569,1.54538 7.42263,0.97031 z"
       id="path1"
       sodipodi:nodetypes="ssssccssscsscscsssscsccsssssssscssscsssccccsscsccc" /></g></svg>
