<?xml version="1.0" encoding="UTF-8" standalone="no"?>
<!-- Created with Inkscape (http://www.inkscape.org/) -->

<svg
   width="66.674179mm"
   height="46.66925mm"
   viewBox="0 0 66.674177 46.669251"
   version="1.1"
   id="svg1"
   xml:space="preserve"
   xmlns:inkscape="http://www.inkscape.org/namespaces/inkscape"
   xmlns:sodipodi="http://sodipodi.sourceforge.net/DTD/sodipodi-0.dtd"
   xmlns="http://www.w3.org/2000/svg"
   xmlns:svg="http://www.w3.org/2000/svg"><sodipodi:namedview
     id="namedview1"
     pagecolor="#000000"
     bordercolor="#ffffff"
     borderopacity="0.25"
     inkscape:showpageshadow="2"
     inkscape:pageopacity="0.0"
     inkscape:pagecheckerboard="0"
     inkscape:deskcolor="#d1d1d1"
     inkscape:document-units="mm" /><defs
     id="defs1" /><g
     inkscape:label="Layer 1"
     inkscape:groupmode="layer"
     id="layer1"
     transform="translate(-27.610097,-129.81917)"><path
       style="fill:#ffffff"
       d="m 51.427117,176.37262 c -11.462024,-0.28701 -16.262464,-0.79997 -18.548277,-1.98201 -1.204658,-0.62296 -2.705083,-2.24488 -3.354204,-3.62583 -2.51302,-5.34622 -2.565879,-29.35038 -0.07708,-35.00259 1.085983,-2.46633 3.28382,-4.12722 6.274107,-4.74129 7.75727,-1.59299 42.816623,-1.60554 50.404081,-0.018 4.25169,0.88957 6.37591,3.11849 7.22391,7.57997 1.40512,7.39262 1.1848,25.10499 -0.38478,30.93396 -0.63644,2.36355 -3.16915,4.90777 -5.5128,5.53784 -4.074034,1.09527 -20.670594,1.70246 -36.024959,1.31799 z m 12.104687,-18.43703 c 4.402005,-2.5411 8.002382,-4.69709 8.000836,-4.79111 -0.0015,-0.094 -0.864748,-0.66364 -1.918229,-1.26585 -1.053481,-0.6022 -4.921747,-2.82921 -8.596148,-4.9489 l -6.680729,-3.85399 v 10.05144 10.05145 l 0.595312,-0.31144 c 0.327422,-0.17129 4.196953,-2.39051 8.598958,-4.9316 z"
       id="path1"
       sodipodi:nodetypes="csssccsssccscsscccss" /></g></svg>
